<svg width="44" height="44" viewBox="0 0 44 44" fill="none" xmlns="http://www.w3.org/2000/svg">
<g clip-path="url(#clip0_58_651)">
<circle cx="20.2631" cy="22.579" r="16.7895" fill="black"/>
<path d="M37.554 6.44131C28.9612 -2.14892 15.0315 -2.14686 6.44131 6.44603C-2.14892 15.0389 -2.14686 28.9685 6.44603 37.5588C15.0389 46.149 28.9685 46.1469 37.5588 37.554C41.6843 33.4272 44.0013 27.8305 44 21.9953C43.9988 16.161 41.6801 10.5661 37.554 6.44131ZM33.3183 30.6458C33.3173 30.6467 33.3164 30.6478 33.3153 30.6487V30.6414L32.2006 31.7487C30.759 33.2085 28.6595 33.8091 26.6639 33.3327C24.6534 32.7946 22.7422 31.9379 21.0026 30.7954C19.3865 29.7625 17.8888 28.5551 16.5366 27.1947C15.2925 25.9597 14.1748 24.6036 13.1999 23.1467C12.1336 21.579 11.2896 19.8713 10.6919 18.072C10.0068 15.9583 10.5746 13.6389 12.1586 12.0807L13.4639 10.7754C13.8269 10.4108 14.4166 10.4096 14.781 10.7725C14.782 10.7734 14.783 10.7744 14.7839 10.7754L18.9053 14.8967C19.2698 15.2596 19.2711 15.8493 18.9082 16.2138C18.9072 16.2147 18.9063 16.2157 18.9053 16.2167L16.4853 18.6367C15.7909 19.3235 15.7036 20.4149 16.2799 21.2034C17.1552 22.4046 18.1238 23.535 19.1766 24.5841C20.3505 25.763 21.6265 26.8354 22.9899 27.7888C23.7777 28.3383 24.8458 28.2456 25.5273 27.5688L27.8666 25.1928C28.2295 24.8282 28.8192 24.8269 29.1836 25.1899C29.1846 25.1908 29.1855 25.1918 29.1866 25.1928L33.3153 29.3288C33.6799 29.6916 33.6812 30.2812 33.3183 30.6458Z" fill="white"/>
</g>
<defs>
<clipPath id="clip0_58_651">
<rect width="44" height="44" fill="white"/>
</clipPath>
</defs>
</svg>
