<svg width="190" height="55" viewBox="0 0 190 55" fill="none" xmlns="http://www.w3.org/2000/svg">
<rect width="190" height="54.7283" rx="13" fill="white"/>
<path d="M27.3317 18.7808H12.9074V22.1207H22.5397L12.375 34.3668V37.1742H27.3317V33.8343H17.1669L27.3317 21.5882V18.7808Z" fill="black"/>
<path d="M34.689 33.8827V29.3328H41.9012V26.1382H34.689V22.0723H44.0793V18.7808H31.0104V37.1742H44.3213V33.8827H34.689Z" fill="black"/>
<path d="M69.2007 18.7808H63.7311L58.552 32.721L53.4212 18.7808H47.8548V37.1742H51.4851V23.3308L56.6158 37.1742H60.4881L65.5705 23.476V37.1742H69.2007V18.7808Z" fill="black"/>
<path d="M78.0586 33.8827V29.3328H85.2707V26.1382H78.0586V22.0723H87.4489V18.7808H74.3799V37.1742H87.6909V33.8827H78.0586Z" fill="black"/>
<path d="M106.955 37.1742L100.227 27.6871L106.568 18.7808H102.454L98.0492 24.9765L93.6929 18.7808H89.4334L95.8227 27.7355L89.0462 37.1742H93.3057L97.9524 30.4461L102.696 37.1742H106.955Z" fill="black"/>
<path d="M117.701 18.7808H109.908V37.1742H113.635V30.3977H117.701C121.961 30.3977 124.526 28.2195 124.526 24.5892C124.526 21.0074 121.961 18.7808 117.701 18.7808ZM117.265 27.3967H113.635V21.9271H117.265C119.54 21.9271 120.751 22.8467 120.751 24.6861C120.751 26.477 119.54 27.3967 117.265 27.3967Z" fill="black"/>
<path d="M131.641 33.8827V29.3328H138.853V26.1382H131.641V22.0723H141.032V18.7808H127.963V37.1742H141.274V33.8827H131.641Z" fill="black"/>
<path d="M156.327 37.1742H160.49L155.988 29.72C158.215 28.8488 159.522 27.0578 159.522 24.4924C159.522 20.9106 156.956 18.7808 152.745 18.7808H144.807V37.1742H148.486V30.2525H152.261L156.327 37.1742ZM148.486 21.9271H152.455C154.633 21.9271 155.746 22.8467 155.746 24.5892C155.746 26.3318 154.633 27.2998 152.455 27.2998H148.486V21.9271Z" fill="black"/>
<path d="M177.721 18.7808H161.313V22.1691H167.654V37.1742H171.381V22.1691H177.721V18.7808Z" fill="black"/>
</svg>
