<svg viewBox="0 0 24 24"  xmlns="http://www.w3.org/2000/svg" style="display:none">

	<symbol viewBox="0 0 38 38" id="phone">
		<path d="M32.433 5.5627C25.012 -1.85613 12.9818 -1.85435 5.56295 5.56678C-1.85589 12.9879 -1.8541 25.018 5.56703 32.4369C12.9882 39.8557 25.0183 39.8539 32.4371 32.4328C36.0001 28.8687 38.0011 24.0352 38 18.9957C37.999 13.957 35.9965 9.12505 32.433 5.5627ZM28.7749 26.4666C28.774 26.4674 28.7732 26.4683 28.7723 26.4691V26.4628L27.8096 27.4191C26.5646 28.6798 24.7514 29.1986 23.028 28.7871C21.2916 28.3223 19.641 27.5825 18.1386 26.5958C16.7429 25.7037 15.4494 24.661 14.2816 23.4861C13.2072 22.4195 12.2419 21.2483 11.4 19.9901C10.479 18.6362 9.75014 17.1613 9.23395 15.6074C8.64221 13.7819 9.13257 11.7788 10.5006 10.4331L11.628 9.30578C11.9414 8.99094 12.4507 8.98983 12.7654 9.30325C12.7662 9.30407 12.7671 9.30488 12.768 9.30578L16.3273 12.8651C16.6421 13.1785 16.6432 13.6878 16.3298 14.0026C16.329 14.0034 16.3282 14.0042 16.3273 14.0051L14.2373 16.0951C13.6376 16.6882 13.5622 17.6308 14.06 18.3118C14.8159 19.3492 15.6524 20.3254 16.5616 21.2315C17.5754 22.2496 18.6775 23.1758 19.855 23.9992C20.5353 24.4737 21.4577 24.3937 22.0463 23.8092L24.0666 21.7572C24.38 21.4423 24.8893 21.4412 25.204 21.7546C25.2049 21.7555 25.2057 21.7563 25.2066 21.7572L28.7723 25.3292C29.0872 25.6425 29.0883 26.1517 28.7749 26.4666Z"/>
	</symbol>

	<symbol viewBox="0 0 20 20" id="next">
		<path fill-rule="evenodd" clip-rule="evenodd" d="M19.5833 5.33333C19.9167 6.33333 20 8.08333 20 10C20 11.9167 19.9167 13.6667 19.6667 14.6667C19.3333 15.9167 18.9167 17 17.9167 17.9167C16.6667 19.0833 15.5 19.4167 13.9167 19.75C12.5 20 10.8333 20 10 20C9.16667 20 7.5 20 6.16667 19.75C4.5 19.4167 3.41667 19.0833 2.16667 17.9167C1.16667 16.9167 0.75 15.8333 0.416667 14.6667C0.0833333 13.6667 0 11.9167 0 10C0 8.08333 0.0833333 6.33333 0.416667 5.33333C0.75 4.16667 1.08333 3.08333 2.16667 2.08333C3.33333 1 4.5 0.583333 6.16667 0.25C7.41667 0.0833333 8.75 0 9.66667 0H10.4167C11.25 0 12.6667 0.0833333 13.8333 0.25C15.5 0.583333 16.5833 0.916667 17.8333 2.08333C18.8333 3.08333 19.25 4.16667 19.5833 5.33333ZM7.5 6.74998C7.16667 6.41665 7.16667 5.91665 7.5 5.58331C7.83333 5.24998 8.33333 5.24998 8.66667 5.58331L12.5 9.41665C12.8333 9.74998 12.8333 10.25 12.5 10.5833L8.66667 14.4166C8.33333 14.75 7.83333 14.75 7.5 14.4166C7.16667 14.0833 7.16667 13.5833 7.5 13.25L10.75 9.99998L7.5 6.74998Z"/>
	</symbol>

	<symbol viewBox="0 0 38 38" id="email">
		<path fill-rule="evenodd" clip-rule="evenodd" d="M19 38C8.52336 38 0 29.4766 0 19C0 8.52336 8.52336 0 19 0C29.4766 0 38 8.52336 38 19C38 29.4766 29.4766 38 19 38ZM28.8531 25.6746C29.0874 25.6746 29.278 25.484 29.278 25.2497V13.3214L19.611 20.998C19.4322 21.1402 19.216 21.2112 18.9999 21.2112C18.7839 21.2112 18.5677 21.1401 18.3888 20.998L8.72189 13.3214V25.2497C8.72189 25.484 8.91256 25.6746 9.14679 25.6746H28.8531ZM27.3717 12.3254L19 18.9736L10.6282 12.3254H27.3717ZM31.2436 12.7503V25.2498C31.2436 26.5679 30.1712 27.6402 28.8531 27.6402H9.14679C7.82867 27.6402 6.75643 26.5679 6.75643 25.2498V12.7503C6.75643 11.4323 7.82874 10.36 9.14679 10.36H28.8531C30.1712 10.3599 31.2436 11.4323 31.2436 12.7503Z"/>
	</symbol>

	<symbol viewBox="0 0 36 36" id="close">
		<path d="M24.2502 13.575L19.7627 18L24.2502 22.425C24.3751 22.5419 24.4746 22.6832 24.5427 22.8402C24.6108 22.9972 24.6459 23.1664 24.6459 23.3375C24.6459 23.5086 24.6108 23.6778 24.5427 23.8348C24.4746 23.9918 24.3751 24.1331 24.2502 24.25C24.1334 24.3659 23.9949 24.4575 23.8426 24.5197C23.6903 24.5819 23.5272 24.6135 23.3627 24.6125C23.0348 24.6111 22.7205 24.4809 22.4877 24.25L18.0002 19.7625L13.5752 24.25C13.3424 24.4809 13.0281 24.6111 12.7002 24.6125C12.5357 24.6135 12.3726 24.5819 12.2203 24.5197C12.068 24.4575 11.9295 24.3659 11.8127 24.25C11.5799 24.0158 11.4492 23.699 11.4492 23.3687C11.4492 23.0385 11.5799 22.7217 11.8127 22.4875L16.2377 18L11.8127 13.575C11.6079 13.3359 11.5009 13.0283 11.5131 12.7137C11.5252 12.3991 11.6556 12.1007 11.8782 11.878C12.1009 11.6554 12.3993 11.525 12.7139 11.5129C13.0285 11.5007 13.3361 11.6077 13.5752 11.8125L18.0002 16.2375L22.4252 11.8125C22.5409 11.6927 22.6791 11.5968 22.8319 11.5304C22.9847 11.464 23.149 11.4283 23.3156 11.4254C23.4822 11.4225 23.6477 11.4524 23.8027 11.5135C23.9577 11.5745 24.0991 11.6655 24.219 11.7812C24.3388 11.897 24.4346 12.0352 24.5011 12.188C24.5675 12.3407 24.6032 12.5051 24.6061 12.6717C24.609 12.8382 24.579 13.0037 24.518 13.1587C24.4569 13.3137 24.3659 13.4552 24.2502 13.575ZM30.3752 30.375C27.9277 32.8222 24.8095 34.4888 21.4149 35.1639C18.0203 35.839 14.5017 35.4923 11.3041 34.1677C8.10649 32.8431 5.37347 30.6001 3.45062 27.7223C1.52778 24.8445 0.501465 21.4611 0.501465 18C0.501465 14.5389 1.52778 11.1555 3.45062 8.27771C5.37347 5.39988 8.10649 3.15687 11.3041 1.83228C14.5017 0.507693 18.0203 0.161031 21.4149 0.836127C24.8095 1.51122 27.9277 3.17776 30.3752 5.625C32.0004 7.25005 33.2896 9.17931 34.1692 11.3026C35.0488 13.4259 35.5015 15.7017 35.5015 18C35.5015 20.2983 35.0488 22.5741 34.1692 24.6974C33.2896 26.8207 32.0004 28.75 30.3752 30.375ZM28.6127 7.3875C26.5128 5.29492 23.84 3.87148 20.9317 3.29692C18.0234 2.72236 15.0101 3.02245 12.2723 4.1593C9.5344 5.29614 7.19479 7.21875 5.54887 9.68436C3.90295 12.15 3.02453 15.048 3.02453 18.0125C3.02453 20.977 3.90295 23.875 5.54887 26.3406C7.19479 28.8062 9.5344 30.7289 12.2723 31.8657C15.0101 33.0025 18.0234 33.3026 20.9317 32.7281C23.84 32.1535 26.5128 30.7301 28.6127 28.6375C30.0111 27.2439 31.1207 25.5881 31.8777 23.7648C32.6348 21.9415 33.0245 19.9867 33.0245 18.0125C33.0245 16.0383 32.6348 14.0835 31.8777 12.2602C31.1207 10.4369 30.0111 8.78105 28.6127 7.3875Z"/>
	</symbol>
		
</svg>