<svg width="44" height="44" viewBox="0 0 44 44" fill="none" xmlns="http://www.w3.org/2000/svg">
<g clip-path="url(#clip0_58_636)">
<ellipse cx="21.9999" cy="21.4208" rx="18.5263" ry="16.7895" fill="black"/>
<path fill-rule="evenodd" clip-rule="evenodd" d="M22 44C9.86915 44 0 34.1309 0 22C0 9.86915 9.86915 0 22 0C34.1309 0 44 9.86915 44 22C44 34.1309 34.1309 44 22 44ZM33.4089 29.7284C33.6801 29.7284 33.9009 29.5078 33.9009 29.2365V15.4248L22.7075 24.3135C22.5004 24.4781 22.2501 24.5603 21.9999 24.5603C21.7497 24.5603 21.4995 24.478 21.2923 24.3135L10.099 15.4248V29.2365C10.099 29.5078 10.3198 29.7284 10.591 29.7284H33.4089ZM31.6936 14.2716L22 21.9694L12.3063 14.2716H31.6936ZM36.1768 14.7635V29.2366C36.1768 30.7628 34.9351 32.0045 33.4089 32.0045H10.591C9.06477 32.0045 7.82323 30.7628 7.82323 29.2366V14.7635C7.82323 13.2374 9.06486 11.9958 10.591 11.9958H33.4089C34.9351 11.9957 36.1768 13.2374 36.1768 14.7635Z" fill="white"/>
</g>
<defs>
<clipPath id="clip0_58_636">
<rect width="44" height="44" fill="white"/>
</clipPath>
</defs>
</svg>
